<?xml version="1.0" standalone="no"?>
<!DOCTYPE svg PUBLIC "-//W3C//DTD SVG 20010904//EN"
 "http://www.w3.org/TR/2001/REC-SVG-20010904/DTD/svg10.dtd">
<svg version="1.0" xmlns="http://www.w3.org/2000/svg"
 width="512.000000pt" height="512.000000pt" viewBox="0 0 512.000000 512.000000"
 preserveAspectRatio="xMidYMid meet">
<metadata>
Created by potrace 1.14, written by Peter Selinger 2001-2017
</metadata>
<g transform="translate(0.000000,512.000000) scale(0.100000,-0.100000)"
fill="#000000" stroke="none">
<path d="M2886 4225 c-145 -50 -202 -220 -113 -338 78 -104 230 -120 323 -35
21 19 24 19 85 2 35 -9 77 -18 93 -21 77 -13 76 -11 76 -136 l0 -113 -577
-289 c-318 -159 -587 -289 -598 -288 -26 0 -93 10 -125 17 -14 3 -41 8 -60 11
-19 2 -44 6 -55 9 -11 2 -59 9 -106 17 l-86 13 -22 84 c-13 49 -18 88 -13 91
55 36 278 225 294 250 41 61 10 158 -61 189 -34 16 -81 17 -434 17 l-396 0
-24 -23 c-31 -30 -46 -85 -42 -162 4 -76 39 -152 95 -208 69 -68 110 -84 290
-113 41 -7 82 -16 90 -20 9 -4 25 -48 40 -111 34 -145 38 -148 215 -177 77
-13 149 -25 160 -28 23 -4 53 -9 114 -18 50 -8 49 6 10 -172 l-12 -53 -186
-108 c-102 -60 -212 -123 -243 -141 -32 -18 -60 -36 -62 -40 -6 -9 79 -134 94
-139 5 -2 79 37 164 87 161 95 194 112 183 94 -6 -10 -38 -153 -53 -237 -3
-16 -6 -32 -8 -35 -2 -3 -7 -24 -10 -46 -4 -22 -9 -47 -11 -55 -7 -24 -56
-252 -62 -288 -3 -19 -2 -49 1 -67 12 -61 29 -64 401 -62 327 2 330 2 375 26
49 26 105 82 122 121 6 14 99 290 208 615 l197 590 59 30 c57 29 64 29 210 31
l152 2 12 -27 c7 -14 20 -47 30 -72 l19 -47 -62 -43 c-82 -56 -284 -260 -302
-304 -20 -47 -19 -59 11 -94 20 -24 34 -31 60 -31 32 0 49 14 172 138 75 75
151 145 169 155 31 17 32 17 39 -5 4 -13 20 -51 35 -85 32 -70 21 -69 132 -19
31 14 57 27 57 30 0 2 -15 37 -34 77 -53 118 -53 112 1 136 85 37 165 64 265
88 113 27 114 28 132 63 23 47 2 105 -45 121 -48 16 -302 -50 -421 -110 -21
-11 -41 -19 -46 -19 -5 0 -49 89 -97 198 -92 207 -118 265 -155 347 -20 45
-22 65 -22 225 0 187 -8 222 -51 240 -12 6 -84 25 -160 44 -77 19 -140 36
-141 38 -1 2 -10 24 -19 49 -41 109 -165 170 -271 134z m551 -930 c23 -55 43
-105 43 -110 0 -6 -48 -10 -122 -11 l-123 -1 -372 -187 c-360 -180 -388 -197
-398 -244 -2 -9 -43 -172 -90 -362 -48 -190 -89 -353 -91 -362 -2 -10 -6 -26
-9 -35 -2 -10 -15 -62 -28 -116 -14 -54 -27 -100 -30 -103 -6 -7 -155 -7 -166
0 -4 3 -2 28 5 55 7 28 15 63 18 78 3 15 7 39 11 53 6 27 23 108 31 150 3 14
14 66 25 115 44 199 49 221 54 250 3 17 8 39 11 50 2 11 19 90 37 175 l32 155
545 276 c300 152 552 276 560 275 9 -1 32 -42 57 -101z m-676 -988 c-93 -278
-176 -514 -186 -523 -18 -19 -88 -31 -141 -26 l-31 3 39 157 c22 86 41 164 43
172 2 8 27 107 55 220 59 234 59 237 66 267 19 92 19 93 174 169 80 40 146 71
147 70 1 -1 -73 -230 -166 -509z"/>
<path d="M4207 2644 c-1 -1 -29 -4 -62 -7 -70 -7 -150 -24 -175 -37 -17 -9
-12 -25 57 -177 41 -93 89 -202 107 -243 42 -94 94 -211 104 -228 4 -8 24 -20
46 -27 146 -51 161 -251 24 -319 -79 -40 -160 -21 -213 48 -33 44 -45 129 -23
170 14 27 10 39 -130 355 -79 179 -147 330 -151 334 -11 11 -127 -75 -190
-142 -152 -160 -239 -366 -245 -583 -13 -458 317 -844 774 -904 91 -12 244 -3
296 16 13 5 24 7 24 5 0 -9 164 55 219 86 160 90 301 245 376 415 88 198 95
452 20 658 -113 309 -398 535 -722 571 -61 7 -133 12 -136 9z"/>
<path d="M753 2630 c-198 -28 -429 -157 -548 -307 -142 -178 -206 -367 -200
-587 6 -239 87 -429 256 -598 169 -168 388 -257 631 -253 409 5 752 284 844
685 18 77 24 239 12 320 -11 73 -36 155 -67 225 l-30 66 -28 -15 c-15 -8 -152
-91 -303 -184 l-275 -170 3 -40 c8 -92 -66 -181 -157 -190 -67 -6 -114 12
-155 60 -100 116 -19 286 139 292 21 1 89 37 209 111 98 61 190 117 205 125
104 60 251 155 251 162 0 14 -101 108 -160 148 -105 71 -234 125 -350 145 -55
10 -220 13 -277 5z"/>
</g>
</svg>
